<svg xmlns="http://www.w3.org/2000/svg" viewBox="0 0 64 64">
  <defs>
    <linearGradient id="bg" x1="0" y1="0" x2="1" y2="1">
      <stop offset="0%" stop-color="#0ea5e9" />
      <stop offset="100%" stop-color="#6366f1" />
    </linearGradient>
    <linearGradient id="chip" x1="0" y1="0" x2="1" y2="1">
      <stop offset="0%" stop-color="#e0f2fe" />
      <stop offset="100%" stop-color="#bfdbfe" />
    </linearGradient>
  </defs>

  <rect x="4" y="4" width="56" height="56" rx="14" fill="url(#bg)" />

  <rect x="18" y="18" width="28" height="28" rx="6" fill="url(#chip)" />
  <rect x="24" y="24" width="16" height="16" rx="3" fill="#1e293b" />

  <path
    d="M30 28l-4 4 4 4M34 28l4 4-4 4"
    fill="none"
    stroke="#38bdf8"
    stroke-width="2.6"
    stroke-linecap="round"
    stroke-linejoin="round"
  />

  <g stroke="#93c5fd" stroke-width="2" stroke-linecap="round">
    <path d="M22 14v4M30 14v4M38 14v4M46 14v4" />
    <path d="M22 46v4M30 46v4M38 46v4M46 46v4" />
    <path d="M14 22h4M14 30h4M14 38h4M14 46h4" />
    <path d="M46 22h4M46 30h4M46 38h4M46 46h4" />
  </g>
</svg>
